{"title":"Ozzy - Albuquerque N.M. 1-7-82 (From 30 Years After The Blizzard","uid":8685770,"size":619244818,"categoryP":"video","categoryS":"music_videos","magnet":"?xt=urn:btih:1c67dc1e1cca18e1d900b7d7f0dd72937b030f83&amp;dn=Ozzy+-+Albuquerque+N.M.+1-7-82+%28From+30+Years+After+The+Blizzard&amp;tr=udp%3A%2F%2Ftracker.openbittorrent.com%3A80&amp;tr=udp%3A%2F%2Fopen.demonii.com%3A1337&amp;tr=udp%3A%2F%2Ftracker.coppersurfer.tk%3A6969&amp;tr=udp%3A%2F%2Fexodus.desync.com%3A6969","seeders":0,"leechers":1,"uploader":"chilinvilin","files":2,"time":1373801519,"description":"OZZY - Albuquerque N.M. 1-7-82 (From 30 Years After The Blizzard)\n\nOzzy Osbourne\nTingley Coliseum\nAlbuquerque New Mexico\nJan. 7th 1982\n\n\nTrack Listing:\n\n01 - Over The Mountain\n02 - Mr. Crowley\n\nPerformance And News Footage Courtesy Of KRQE-TV Albuquerque\n\n\n\nN.M. 1-7-82 (From 30 Years After The Blizzard)OZZY - Albuquerque N.M. 1-7-82 (From 30 Years After The Blizzard).mkv\nFormat                                   : Matroska\nFormat version                           : Version 2\nFile size                                : 591 MiB\nDuration                                 : 13mn 24s\nOverall bit rate mode                    : Variable\nOverall bit rate                         : 6 157 Kbps\nWriting application                      : Lavf54.59.106\nWriting library                          : Lavf54.59.106\n\nVideo\nID                                       : 1\nFormat                                   : MPEG Video\nFormat version                           : Version 2\nFormat profile                           : Main@Main\nFormat settings, BVOP                    : No\nFormat settings, Matrix                  : Default\nCodec ID                                 : V_MPEG1\nCodec ID/Info                            : MPEG 1 or 2 Video\nDuration                                 : 13mn 24s\nBit rate mode                            : Variable\nBit rate                                 : 5 811 Kbps\nWidth                                    : 720 pixels\nHeight                                   : 480 pixels\nDisplay aspect ratio                     : 3:2\nOriginal display aspect ratio            : 4:3\nFrame rate mode                          : Constant\nFrame rate                               : 29.970 fps\nStandard                                 : NTSC\nColor space                              : YUV\nChroma subsampling                       : 4:2:0\nBit depth                                : 8 bits\nScan type                                : Progressive\nCompression mode                         : Lossy\nBits/(Pixel*Frame)                       : 0.561\nTime code of first frame                 : 00:00:00:00\nTime code source                         : Group of pictures header\nStream size                              : 557 MiB (94%)\nDefault                                  : Yes\nForced                                   : No\n\nAudio\nID                                       : 2\nFormat                                   : MPEG Audio\nFormat version                           : Version 1\nFormat profile                           : Layer 3\nCodec ID                                 : A_MPEG/L3\nCodec ID/Hint                            : MP3\nDuration                                 : 13mn 24s\nBit rate mode                            : Constant\nBit rate                                 : 224 Kbps\nChannel(s)                               : 2 channels\nSampling rate                            : 48.0 KHz\nCompression mode                         : Lossy\nDelay relative to video                  : 1mn 5s\nStream size                              : 21.5 MiB (4%)\nDefault                                  : Yes\nForced                                   : No\n\n","torrent":{"xt":"urn:btih:1c67dc1e1cca18e1d900b7d7f0dd72937b030f83","amp;dn":"Ozzy+-+Albuquerque+N.M.+1-7-82+%28From+30+Years+After+The+Blizzard","amp;tr":["udp%3A%2F%2Ftracker.openbittorrent.com%3A80","udp%3A%2F%2Fopen.demonii.com%3A1337","udp%3A%2F%2Ftracker.coppersurfer.tk%3A6969","udp%3A%2F%2Fexodus.desync.com%3A6969"],"infoHash":"1c67dc1e1cca18e1d900b7d7f0dd72937b030f83","infoHashBuffer":{"type":"Buffer","data":[28,103,220,30,28,202,24,225,217,0,183,215,240,221,114,147,123,3,15,131]},"announce":[],"urlList":[]}}